<svg width="164" height="164" fill="none" xmlns="http://www.w3.org/2000/svg"><path d="M142.377 81.5c0 33.707-27.327 61.034-61.04 61.034-33.711 0-61.038-27.327-61.038-61.034 0-33.707 27.327-61.035 61.039-61.035s61.039 27.328 61.039 61.035Z" stroke="#fff" stroke-width="40"/><path d="M81.338.466c22.378 0 42.637 9.07 57.302 23.733l-14.141 14.143c11.068 11.067 17.878 26.298 17.878 43.158h20c0 22.377-9.071 42.636-23.737 57.301l-14.141-14.143c-11.068 11.067-26.3 17.876-43.161 17.876v20c-22.378 0-42.638-9.069-57.303-23.733l14.142-14.143C27.109 113.591 20.299 98.36 20.299 81.5h-20c0-22.377 9.07-42.636 23.736-57.3l14.142 14.142c11.068-11.067 26.3-17.877 43.16-17.877v-20Z" stroke="#F3603C" stroke-width="40" stroke-dasharray="502"/><path d="M81.338.466c22.378 0 42.637 9.07 57.302 23.733l-14.141 14.143c11.068 11.067 17.878 26.298 17.878 43.158h20c0 22.377-9.071 42.636-23.737 57.301l-14.141-14.143c-11.068 11.067-26.3 17.876-43.161 17.876v20c-22.378 0-42.638-9.069-57.303-23.733l14.142-14.143C27.109 113.591 20.299 98.36 20.299 81.5h-20c0-22.377 9.07-42.636 23.736-57.3l14.142 14.142c11.068-11.067 26.3-17.877 43.16-17.877v-20Z" stroke="#242D52" stroke-width="40" stroke-dasharray="340"/></svg>