<svg width="233" height="205" fill="none" xmlns="http://www.w3.org/2000/svg"><path fill="#FAFAFA" stroke="#E5E9EA" d="M1.208 1.207h230.286v202.586H1.208z"/><path fill="#E5E9EA" d="M1.208 102.5h230.286v.791H1.208zM1.208 121.492h230.286v.791H1.208zM1.208 140.485h230.286v.791H1.208zM1.208 159.477h230.286v.791H1.208zM1.208 26.53h230.286v.791H1.208zM1.208 7.538h230.286v.791H1.208zM1.208 45.523h230.286v.791H1.208zM1.208 64.515h230.286v.791H1.208zM1.208 83.508h230.286v.791H1.208zM1.208 178.47h230.286v.791H1.208zM1.208 197.462h230.286v.791H1.208z"/><path d="M7.286 102.5H38.35v45.647a5 5 0 0 1-5 5H12.286a5 5 0 0 1-5-5V102.5Z" fill="#242D52"/><path d="M7.286 102.5H38.35v32.985a5 5 0 0 1-5 5H12.286a5 5 0 0 1-5-5V102.5ZM54.559 102.234h31.064V67.658a5 5 0 0 0-5-5H59.558a5 5 0 0 0-5 5v34.576Z" fill="#F3603C"/><path d="M54.559 102.234h31.064v51.99a5 5 0 0 1-5 5H59.558a5 5 0 0 1-5-5v-51.99ZM147.078 102.5h31.065V31.193a5 5 0 0 0-5-5h-21.065a5 5 0 0 0-5 5V102.5Z" fill="#242D52"/><path d="M147.078 102.5h31.065V50.27a5 5 0 0 0-5-5h-21.065a5 5 0 0 0-5 5v52.23Z" fill="#F3603C"/><path d="M194.351 102.5h31.065v58.477a5 5 0 0 1-5 5h-21.065a5 5 0 0 1-5-5V102.5Z" fill="#242D52"/><path d="M194.351 102.5h31.065v45.782a5 5 0 0 1-5 5h-21.065a5 5 0 0 1-5-5V102.5ZM100.48 102.5h31.065v90.216a5 5 0 0 1-5 5H105.48a5 5 0 0 1-5-5V102.5Z" fill="#F3603C"/><path d="M100.48 102.5h31.065v33.086a5 5 0 0 1-5 5H105.48a5 5 0 0 1-5-5V102.5Z" fill="#242D52"/></svg>